<?xml version="1.0" encoding="utf-8"?>
<?xml-stylesheet type="text/xsl" href="rss1.xsl"?>
<rss version="2.0" xmlns:atom="http://www.w3.org/2005/Atom" xmlns:content="http://purl.org/rss/1.0/modules/content/" xmlns:dc="http://purl.org/dc/elements/1.1/" xmlns:media="http://search.yahoo.com/mrss/">
<channel>
 <title>Getty</title>
 <link>http://www.gettyimg.com/</link>
 <atom:link href="http://www.gettyimg.com/" rel="self" type="application/rss+xml" />

 
                <item>
                <title><![CDATA[【HD Live Performances】UHDTV 4K - Sam Smith - Lollapalooza Brasil 2024 UHDTV.H265.2160p.DD5.1-ilya2129 [CHAPTERS MENU]]]></title>
                <link><![CDATA[https://sharemania.us/threads/sam-smith-lollapalooza-brasil-2024-uhdtv-h265-2160p-dd5-1-ilya2129-chapters-menu.241053/]]></link>
                <description><![CDATA[<article>
<blockquote class="messageText SelectQuoteContainer ugc baseHtml">
<b><span style="font-size: 22px">Sam Smith: Lollapalooza Brasil (2024) 2160p [9.99GB]</span></b><br>
<br>
<span style="font-size: 18px"><span style="color: #336600">With Chapters Menu</span></span><br>
<br>
Menu<br>
00:01:58.380 : Stay With Me<br>
00:05:33.536 : I'm Not the Only One<br>
00:09:26.201 : Like I Can<br>
00:16:34.597 : Too Good at Goodbyes<br>
00:22:11.464 : Diamonds<br>
00:25:44.557 : How Do You Sleep?<br>
00:29:56.338 : Dancing With a Stranger<br>
00:36:30.008 : Good Thing<br>
00:41:00.813 : Lay Me Down<br>
00:47:08.768 : Gimme (feat. Jessie Reyez)<br>
00:51:40.539 : Lose You<br>
00:55:56.095 : Promises<br>
01:00:26.417 : I'm Not Here to Make Friends<br>
01:06:25.674 : Desire<br>
01:08:11.955 : Latch<br>
01:12:56.672 : I Feel Love<br>
01:16:33.147 : Gloria<br>
01:19:39.166 : Unholy<br>
<br>
<img src="https://i.imgur.com/bk7bwg0.png" class="bbCodeImage LbImage" alt="[​IMG]" data-url="https://i.imgur.com/bk7bwg0.png" style=""><br>
<br>
Captured by: <a href="https://sharemania.us/members/ilya2129.78522/" class="internalLink">ilya2129</a><br>
<br>
<a href="https://postimg.cc/4KrRnpqT" target="_blank" class="externalLink" rel="nofollow"><img src="https://i.postimg.cc/4KrRnpqT/vlcsnap-2024-03-28-19h10m13s026.png" class="bbCodeImage LbImage" alt="[​IMG]" data-url="https://i.postimg.cc/4KrRnpqT/vlcsnap-2024-03-28-19h10m13s026.png"></a> <a href="https://postimg.cc/Wh2LDNWt" target="_blank" class="externalLink" rel="nofollow"><img src="https://i.postimg.cc/Wh2LDNWt/vlcsnap-2024-03-28-19h10m19s744.png" class="bbCodeImage LbImage" alt="[​IMG]" data-url="https://i.postimg.cc/Wh2LDNWt/vlcsnap-2024-03-28-19h10m19s744.png"></a> <a href="https://postimg.cc/1VSxrsyC" target="_blank" class="externalLink" rel="nofollow"><img src="https://i.postimg.cc/1VSxrsyC/vlcsnap-2024-03-28-19h10m23s524.png" class="bbCodeImage LbImage" alt="[​IMG]" data-url="https://i.postimg.cc/1VSxrsyC/vlcsnap-2024-03-28-19h10m23s524.png"></a> <a href="https://postimg.cc/svwF7kqm" target="_blank" class="externalLink" rel="nofollow"><img src="https://i.postimg.cc/svwF7kqm/vlcsnap-2024-03-28-19h10m33s550.png" class="bbCodeImage LbImage" alt="[​IMG]" data-url="https://i.postimg.cc/svwF7kqm/vlcsnap-2024-03-28-19h10m33s550.png"></a> <a href="https://postimg.cc/hXjkrCqB" target="_blank" class="externalLink" rel="nofollow"><img src="https://i.postimg.cc/hXjkrCqB/vlcsnap-2024-03-28-19h10m37s808.png" class="bbCodeImage LbImage" alt="[​IMG]" data-url="https://i.postimg.cc/hXjkrCqB/vlcsnap-2024-03-28-19h10m37s808.png"></a> <a href="https://postimg.cc/5QShPT0x" target="_blank" class="externalLink" rel="nofollow"><img src="https://i.postimg.cc/5QShPT0x/vlcsnap-2024-03-28-19h10m41s218.png" class="bbCodeImage LbImage" alt="[​IMG]" data-url="https://i.postimg.cc/5QShPT0x/vlcsnap-2024-03-28-19h10m41s218.png"></a><br>
<br>
<div class="ToggleTriggerAnchor bbCodeSpoilerContainer">
<button type="button" class="button bbCodeSpoilerButton ToggleTrigger Tooltip JsOnly" data-target="> .SpoilerTarget"><span>Spoiler: <span class="SpoilerTitle">MediaInfo</span></span></button>
<div class="SpoilerTarget bbCodeSpoilerText">
<div class="bbCodeBlock bbCodeCode">
<div class="type">Code:</div>
<pre>General
Unique ID                   : 243365102959889336894940419157019673671 (0xB71669F6B8E7E9018AC2C37914594447)
Complete name               : Sam.Smith.Lollapalooza.Brasil.2024.UHDTV.H265.2160p.DD5.1-ilya2129.mkv
Format                      : Matroska
Format version              : Version 4
File size                   : 9.99 GiB
Duration                    : 1 h 24 min
Overall bit rate            : 16.9 Mb/s
Frame rate                  : 59.940 FPS
Movie name                  : Sam Smith: Lollapalooza Brasil (2024)
Encoded date                : 2024-03-29 22:08:31 UTC
Writing application         : mkvmerge v83.0 ('Circle Of Friends') 64-bit
Writing library             : libebml v1.4.5 + libmatroska v1.7.1

Video
ID                          : 1
Format                      : HEVC
Format/Info                 : High Efficiency Video Coding
Format profile              : Main 10@L5.1@Main
Codec ID                    : V_MPEGH/ISO/HEVC
Duration                    : 1 h 24 min
Bit rate                    : 16.2 Mb/s
Width                       : 3 840 pixels
Height                      : 2 160 pixels
Display aspect ratio        : 16:9
Active Format Description   : Full frame 16:9 image
Frame rate mode             : Constant
Frame rate                  : 59.940 (59940/1000) FPS
Original frame rate         : 59.940 (60000/1001) FPS
Color space                 : YUV
Chroma subsampling          : 4:2:0 (Type 0)
Bit depth                   : 10 bits
Bits/(Pixel*Frame)          : 0.033
Time code of first frame    : 00:00:00:00
Stream size                 : 9.61 GiB (96%)
Title                       : HEVC.H265
Default                     : Yes
Forced                      : No
Color range                 : Limited
Color primaries             : BT.709
Transfer characteristics    : BT.709
Matrix coefficients         : BT.709

Audio #1
ID                          : 2
Format                      : AC-3
Format/Info                 : Audio Coding 3
Commercial name             : Dolby Digital
Codec ID                    : A_AC3
Duration                    : 1 h 24 min
Bit rate mode               : Constant
Bit rate                    : 192 kb/s
Channel(s)                  : 2 channels
Channel layout              : L R
Sampling rate               : 48.0 kHz
Frame rate                  : 31.250 FPS (1536 SPF)
Compression mode            : Lossy
Delay relative to video     : 13 ms
Stream size                 : 116 MiB (1%)
Title                       : English (AC3)
Language                    : English
Service kind                : Complete Main
Default                     : Yes
Forced                      : No

Audio #2
ID                          : 3
Format                      : E-AC-3 JOC
Format/Info                 : Enhanced AC-3 with Joint Object Coding
Commercial name             : Dolby Digital Plus with Dolby Atmos
Codec ID                    : A_EAC3
Duration                    : 1 h 24 min
Bit rate mode               : Constant
Bit rate                    : 448 kb/s
Channel(s)                  : 6 channels
Channel layout              : L R C LFE Ls Rs
Sampling rate               : 48.0 kHz
Frame rate                  : 31.250 FPS (1536 SPF)
Compression mode            : Lossy
Delay relative to video     : 16 ms
Stream size                 : 272 MiB (3%)
Title                       : English (E-AC3)
Language                    : English
Service kind                : Complete Main
Default                     : Yes
Forced                      : No
Complexity index            : 12
Number of dynamic objects   : 0
Bed channel count           : 12 channels
Bed channel configuration   : L R C LFE Ls Rs Lb Rb Tfl Tfr Tbl Tbr

Menu
00:01:58.380                : Stay With Me
00:05:33.536                : I'm Not the Only One
00:09:26.201                : Like I Can
00:16:34.597                : Too Good at Goodbyes
00:22:11.464                : Diamonds
00:25:44.557                : How Do You Sleep?
00:29:56.338                : Dancing With a Stranger
00:36:30.008                : Good Thing
00:41:00.813                : Lay Me Down
00:47:08.768                : Gimme (feat. Jessie Reyez)
00:51:40.539                : Lose You
00:55:56.095                : Promises
01:00:26.417                : I'm Not Here to Make Friends
01:06:25.674                : Desire
01:08:11.955                : Latch
01:12:56.672                : I Feel Love
01:16:33.147                : Gloria
01:19:39.166                : Unholy
</pre>
</div></div>
</div><br>
<div class="ToggleTriggerAnchor bbCodeSpoilerContainer">
<button type="button" class="button bbCodeSpoilerButton ToggleTrigger Tooltip JsOnly" data-target="> .SpoilerTarget"><span>Spoiler: <span class="SpoilerTitle">Download</span></span></button>
<div class="SpoilerTarget bbCodeSpoilerText"><a href="https://1fichier.com/?t79d958h7znkdesmm99x" target="_blank" class="externalLink" rel="nofollow">1Fichier (Direct Link)</a></div>
</div>
<div class="messageTextEndMarker">&nbsp;</div>
</blockquote>
</article>]]></description>
                <author><![CDATA[AlexVicente]]></author>
                </item>

                </channel></rss>